<?xml version="1.0" standalone="no"?>
<!DOCTYPE svg PUBLIC "-//W3C//DTD SVG 20010904//EN"
 "http://www.w3.org/TR/2001/REC-SVG-20010904/DTD/svg10.dtd">
<svg version="1.0" xmlns="http://www.w3.org/2000/svg"
 width="1890.000000pt" height="1417.000000pt" viewBox="0 0 1890.000000 1417.000000"
 preserveAspectRatio="xMidYMid meet">

<g transform="translate(0.000000,1417.000000) scale(0.100000,-0.100000)"
fill="#000000" stroke="none">
<path d="M9140 12744 c-19 -2 -84 -9 -145 -15 -159 -15 -383 -54 -565 -99
-1394 -344 -2527 -1381 -2994 -2739 -427 -1242 -257 -2609 460 -3704 646 -987
1681 -1667 2831 -1861 352 -59 761 -79 893 -43 253 68 451 266 517 517 26 99
23 265 -6 360 -30 97 -81 194 -137 260 -96 113 -152 217 -180 338 -22 94 -14
282 16 372 74 220 232 379 455 457 l80 28 595 6 c655 6 698 9 955 74 774 194
1409 784 1659 1540 86 262 119 476 118 765 0 219 -11 350 -47 559 -195 1124
-953 2112 -2060 2682 -502 259 -996 409 -1595 485 -118 15 -757 28 -850 18z
m-655 -967 c110 -36 196 -89 281 -172 371 -365 235 -980 -258 -1168 -79 -30
-90 -31 -233 -31 -138 -1 -156 1 -226 26 -113 40 -195 92 -279 178 -85 86
-131 157 -166 258 -82 237 -36 494 122 686 95 115 221 195 374 236 107 29 273
23 385 -13z m2360 0 c110 -36 197 -90 281 -172 112 -111 173 -231 200 -391 14
-80 15 -113 6 -185 -21 -172 -81 -296 -202 -419 -84 -86 -166 -138 -279 -178
-70 -25 -88 -27 -226 -26 -139 0 -155 2 -225 28 -227 85 -398 270 -457 496
-23 88 -23 263 1 350 68 252 260 442 516 510 108 29 274 23 385 -13z m-3813
-1876 c236 -61 419 -235 500 -476 19 -60 23 -90 23 -205 0 -122 -3 -144 -29
-224 -70 -213 -250 -388 -470 -458 -98 -31 -252 -35 -360 -9 -238 57 -433 234
-512 466 -55 163 -42 368 35 530 84 178 261 324 453 375 100 26 260 26 360 1z
m5192 -1 c195 -50 372 -195 457 -375 77 -162 90 -367 35 -530 -104 -305 -396
-501 -716 -482 -183 11 -318 74 -455 211 -104 104 -151 187 -186 327 -28 108
-23 279 11 379 79 235 263 410 494 470 99 26 258 26 360 0z"/>
<path d="M4150 3705 l0 -525 155 0 155 0 0 300 c0 165 2 300 4 300 2 0 73 -44
158 -98 84 -54 158 -101 164 -105 6 -3 85 40 175 97 l164 104 3 -299 2 -299
155 0 155 0 0 520 c0 286 -2 520 -5 520 -3 0 -148 -92 -321 -205 l-316 -205
-62 38 c-33 22 -179 116 -323 210 l-263 171 0 -524z"/>
<path d="M5570 3705 l0 -525 590 0 590 0 0 525 0 525 -155 0 -155 0 0 -450 0
-450 -280 0 -280 0 0 450 0 450 -155 0 -155 0 0 -525z"/>
<path d="M6900 3705 l0 -525 155 0 155 0 0 525 0 525 -155 0 -155 0 0 -525z"/>
<path d="M8210 4224 c0 -4 27 -37 61 -75 l61 -69 196 -2 197 -3 3 -447 2 -448
155 0 155 0 0 450 0 450 198 1 197 1 63 74 63 74 -675 0 c-372 0 -676 -3 -676
-6z"/>
<path d="M9590 3705 l0 -525 155 0 155 0 0 225 0 225 275 0 275 0 0 -225 0
-225 155 0 155 0 0 525 0 525 -155 0 -155 0 0 -225 0 -225 -275 0 -275 0 0
225 0 225 -155 0 -155 0 0 -525z"/>
<path d="M10900 3705 l0 -525 585 0 c322 0 585 3 585 6 0 3 -30 39 -66 80
l-66 74 -364 0 -364 0 0 145 0 145 400 0 400 0 0 75 0 75 -400 0 -401 0 3 148
3 147 367 3 366 2 61 69 c34 38 61 71 61 75 0 3 -263 6 -585 6 l-585 0 0 -525z"/>
<path d="M12170 3705 l0 -525 155 0 155 0 0 300 c0 165 2 300 4 300 2 0 73
-44 158 -98 84 -54 158 -101 164 -105 6 -3 85 40 175 97 l164 104 3 -299 2
-299 155 0 155 0 0 520 c0 286 -2 520 -5 520 -3 0 -148 -92 -321 -205 l-316
-205 -62 38 c-33 22 -179 116 -323 210 l-263 171 0 -524z"/>
<path d="M13600 3705 l0 -525 585 0 c322 0 585 3 585 6 0 3 -30 39 -66 80
l-66 74 -364 0 -364 0 0 145 0 145 400 0 400 0 0 75 0 75 -400 0 -401 0 3 148
3 147 367 3 366 2 61 69 c34 38 61 71 61 75 0 3 -263 6 -585 6 l-585 0 0 -525z"/>
<path d="M3550 1905 l0 -525 595 0 595 0 0 285 0 285 -155 0 -155 0 0 -210 0
-210 -280 0 -280 0 0 375 0 375 398 0 397 1 63 74 63 75 -620 0 -621 0 0 -525z"/>
<path d="M4900 1905 l0 -525 585 0 c322 0 585 3 585 6 0 3 -30 39 -66 80 l-66
74 -364 0 -364 0 0 145 0 145 400 0 400 0 0 75 0 75 -400 0 -401 0 3 148 3
147 367 3 366 2 61 69 c34 38 61 71 61 75 0 3 -263 6 -585 6 l-585 0 0 -525z"/>
<path d="M6170 1905 l0 -525 155 0 155 0 0 285 c0 157 2 285 5 285 3 0 194
-126 425 -280 231 -154 422 -280 425 -280 3 0 5 234 5 520 l0 520 -155 0 -155
0 0 -280 c0 -154 -2 -280 -5 -280 -4 0 -722 470 -812 532 l-43 29 0 -526z"/>
<path d="M7480 1905 l0 -525 585 0 c322 0 585 3 585 6 0 3 -30 39 -66 80 l-66
74 -364 0 -364 0 0 145 0 145 400 0 400 0 0 75 0 75 -400 0 -401 0 3 148 3
147 367 3 366 2 61 69 c34 38 61 71 61 75 0 3 -263 6 -585 6 l-585 0 0 -525z"/>
<path d="M8760 1910 l0 -520 160 0 160 0 0 445 0 445 290 0 290 0 0 -125 0
-125 -264 -2 -263 -3 258 -295 c143 -162 269 -305 282 -318 22 -22 27 -22 202
-20 l178 3 -204 233 c-112 128 -205 238 -207 243 -2 5 64 9 162 9 l166 0 0
275 0 275 -605 0 -605 0 0 -520z"/>
<path d="M10120 1905 l0 -525 160 0 160 0 2 223 3 222 275 0 275 0 3 -222 2
-223 155 0 155 0 0 525 0 525 -595 0 -595 0 0 -525z m870 220 l0 -145 -275 0
-275 0 0 145 0 145 275 0 275 0 0 -145z"/>
<path d="M11380 2424 c0 -4 27 -37 61 -75 l61 -69 196 -2 197 -3 3 -447 2
-448 155 0 155 0 0 450 0 450 198 1 197 1 63 74 63 74 -675 0 c-372 0 -676 -3
-676 -6z"/>
<path d="M12800 2051 l0 -380 127 -145 127 -146 468 0 468 0 0 525 0 525 -595
0 -595 0 0 -379z m880 -146 l0 -375 -193 0 -193 0 -92 104 -92 104 0 271 0
271 285 0 285 0 0 -375z"/>
<path d="M14110 1910 l0 -520 160 0 160 0 0 445 0 445 290 0 290 0 0 -125 0
-125 -264 -2 -263 -3 258 -295 c143 -162 269 -305 282 -318 22 -22 27 -22 202
-20 l178 3 -204 233 c-112 128 -205 238 -207 243 -2 5 64 9 162 9 l166 0 0
275 0 275 -605 0 -605 0 0 -520z"/>
</g>
</svg>
